# xmcd
#
# Track frame offsets:
# 150
# 21555
# 42470
# 66172
# 89037
# 108640
# 129032
# 143222
# 166472
# 186307
# 206507
# 227515
# 245200
# 267880
# 300665
#
# Disc length: 4314 seconds
#
#
# Revision: 10
# Processed by: cddbd v1.5.2PL0 Copyright (c) Steve Scherf et al.
# Submitted via: FreeRIP 2.95 
#
DISCID=df10d80f
DTITLE=החברים של נטאשה - בהופעה חיה
DYEAR=1996
DGENRE=Rock
TTITLE0=עכשיו אני
TTITLE1=אני אוהב אותך
TTITLE2=יש בך
TTITLE3=קוק בצהרים
TTITLE4=בדקה אחת שפויה
TTITLE5=מלנכולי
TTITLE6=שני סיפורי אהבה
TTITLE7=יש זמן
TTITLE8=על קו הזינוק
TTITLE9=טמבל
TTITLE10=אני לא רוקד כשעצוב
TTITLE11=שברי את הטלוויזיה
TTITLE12=איש בלי נצח
TTITLE13=אם כבר לבד
TTITLE14=נאמר כבר הכל
EXTD=YEAR: 1996
EXTT0=
EXTT1=
EXTT2=
EXTT3=
EXTT4=
EXTT5=
EXTT6=
EXTT7=
EXTT8=
EXTT9=
EXTT10=
EXTT11=
EXTT12=
EXTT13=
EXTT14=
PLAYORDER=
